<?xml version="1.0" encoding="UTF-8"?>
<svg xmlns="http://www.w3.org/2000/svg" xmlns:xlink="http://www.w3.org/1999/xlink" width="80pt" height="80pt" viewBox="0 0 80 80" version="1.1">
<g id="surface1">
<path style=" stroke:none;fill-rule:nonzero;fill:#999999;fill-opacity:1;" d="M 13.640625 10.109375 L 10.109375 13.640625 L 16.464844 20 L 7.5 20 C 3.386719 20 0 23.386719 0 27.5 L 0 52.5 C 0 56.613281 3.386719 60 7.5 60 L 52.5 60 C 53.652344 60 54.742188 59.726562 55.722656 59.257812 L 66.355469 69.894531 L 69.894531 66.355469 Z M 80 19.460938 L 60 30.800781 L 60 27.5 C 60 23.363281 56.636719 20 52.5 20 L 30.410156 20 L 35.410156 25 L 52.5 25 C 53.878906 25 55 26.121094 55 27.5 L 55 44.375 L 60 49.375 L 80 60.539062 Z M 7.5 25 L 21.464844 25 L 51.464844 55 L 7.5 55 C 6.09375 55 5 53.90625 5 52.5 L 5 27.5 C 5 26.09375 6.09375 25 7.5 25 Z M 75 28.039062 L 75 51.960938 L 60 43.601562 L 60 36.542969 Z M 75 28.039062 "/>
</g>
</svg>
